<svg width="148" height="22" viewBox="0 0 148 22" fill="none" xmlns="http://www.w3.org/2000/svg">
<path d="M130.686 7.51304L128.09 9.96522L135.225 16.7391L148 4.62609L145.405 2.16522L135.225 11.8174L130.686 7.51304Z" fill="white"/>
<path d="M143.259 18.3913C143.259 18.6219 143.162 18.8431 142.99 19.0062C142.818 19.1693 142.585 19.2609 142.342 19.2609H126.751C126.508 19.2609 126.275 19.1693 126.103 19.0062C125.931 18.8431 125.834 18.6219 125.834 18.3913V3.6087C125.834 3.37807 125.931 3.1569 126.103 2.99382C126.275 2.83074 126.508 2.73913 126.751 2.73913H142.259L143.708 1.35652C143.293 1.12657 142.822 1.00366 142.342 1H126.751C126.022 1 125.322 1.27484 124.806 1.76407C124.29 2.25329 124 2.91683 124 3.6087V18.3913C124 19.0832 124.29 19.7467 124.806 20.2359C125.322 20.7252 126.022 21 126.751 21H142.342C143.071 21 143.771 20.7252 144.287 20.2359C144.803 19.7467 145.093 19.0832 145.093 18.3913V9.84348L143.259 11.5826V18.3913Z" fill="white"/>
<path d="M93 3.52C94.4794 3.52 95.9256 3.95869 97.1557 4.78061C98.3857 5.60252 99.3445 6.77073 99.9106 8.13753C100.477 9.50432 100.625 11.0083 100.336 12.4593C100.048 13.9103 99.3353 15.2431 98.2892 16.2892C97.2431 17.3353 95.9103 18.0477 94.4593 18.3363C93.0083 18.6249 91.5043 18.4768 90.1375 17.9106C88.7707 17.3445 87.6025 16.3857 86.7806 15.1557C85.9587 13.9256 85.52 12.4794 85.52 11C85.5223 9.01689 86.3112 7.11568 87.7134 5.71341C89.1157 4.31115 91.0169 3.52233 93 3.52ZM93 0C90.8244 0 88.6977 0.645139 86.8887 1.85383C85.0798 3.06253 83.6699 4.78049 82.8373 6.79048C82.0048 8.80047 81.7869 11.0122 82.2114 13.146C82.6358 15.2798 83.6835 17.2398 85.2218 18.7782C86.7602 20.3165 88.7202 21.3642 90.854 21.7886C92.9878 22.2131 95.1995 21.9952 97.2095 21.1627C99.2195 20.3301 100.937 18.9202 102.146 17.1113C103.355 15.3023 104 13.1756 104 11C104 8.08262 102.841 5.28472 100.778 3.22182C98.7153 1.15893 95.9174 0 93 0V0Z" fill="white"/>
<path d="M93 14.96C95.1871 14.96 96.96 13.1871 96.96 11C96.96 8.81299 95.1871 7.04004 93 7.04004C90.813 7.04004 89.04 8.81299 89.04 11C89.04 13.1871 90.813 14.96 93 14.96Z" fill="white"/>
<path d="M59.3913 2.73913C59.6219 2.73913 59.8431 2.83074 60.0062 2.99382C60.1693 3.1569 60.2609 3.37807 60.2609 3.6087V18.3913C60.2609 18.6219 60.1693 18.8431 60.0062 19.0062C59.8431 19.1693 59.6219 19.2609 59.3913 19.2609H44.6087C44.3781 19.2609 44.1569 19.1693 43.9938 19.0062C43.8307 18.8431 43.7391 18.6219 43.7391 18.3913V3.6087C43.7391 3.37807 43.8307 3.1569 43.9938 2.99382C44.1569 2.83074 44.3781 2.73913 44.6087 2.73913H59.3913ZM59.3913 1H44.6087C43.9168 1 43.2533 1.27484 42.7641 1.76407C42.2748 2.25329 42 2.91683 42 3.6087V18.3913C42 19.0832 42.2748 19.7467 42.7641 20.2359C43.2533 20.7252 43.9168 21 44.6087 21H59.3913C60.0832 21 60.7467 20.7252 61.2359 20.2359C61.7252 19.7467 62 19.0832 62 18.3913V3.6087C62 2.91683 61.7252 2.25329 61.2359 1.76407C60.7467 1.27484 60.0832 1 59.3913 1Z" fill="white"/>
<path d="M11 3.52C12.4794 3.52 13.9256 3.95869 15.1557 4.78061C16.3857 5.60252 17.3445 6.77073 17.9106 8.13753C18.4768 9.50432 18.6249 11.0083 18.3363 12.4593C18.0477 13.9103 17.3353 15.2431 16.2892 16.2892C15.2431 17.3353 13.9103 18.0477 12.4593 18.3363C11.0083 18.6249 9.50432 18.4768 8.13753 17.9106C6.77074 17.3445 5.60252 16.3857 4.78061 15.1557C3.9587 13.9256 3.52 12.4794 3.52 11C3.52233 9.01689 4.31115 7.11568 5.71342 5.71341C7.11568 4.31115 9.0169 3.52233 11 3.52ZM11 0C8.82441 0 6.69767 0.645139 4.88873 1.85383C3.07979 3.06253 1.66989 4.78049 0.83733 6.79048C0.00476617 8.80047 -0.213071 11.0122 0.211367 13.146C0.635804 15.2798 1.68345 17.2398 3.22183 18.7782C4.76021 20.3165 6.72022 21.3642 8.85401 21.7886C10.9878 22.2131 13.1995 21.9952 15.2095 21.1627C17.2195 20.3301 18.9375 18.9202 20.1462 17.1113C21.3549 15.3023 22 13.1756 22 11C22 8.08262 20.8411 5.28472 18.7782 3.22182C16.7153 1.15893 13.9174 0 11 0Z" fill="white"/>
</svg>
