<svg width="69" height="69" viewBox="0 0 69 69" fill="none" xmlns="http://www.w3.org/2000/svg">
<g filter="url(#filter0_d)">
<circle cx="34.5" cy="30.5" r="30.5" fill="white"/>
<path d="M24.9468 17.7951C24.0597 20.4036 23.2882 23.0316 22.565 25.6693C22.0088 22.8766 21.699 20.0396 21.6392 17.1916C21.6392 16.7731 19.7684 17.0845 19.7781 17.6977C19.9042 21.7798 20.4668 25.8362 21.456 29.7963C20.3084 34.2542 19.2284 38.7315 18.0037 43.1991C17.9073 43.5787 19.7202 43.3354 19.8456 42.8584C20.7135 39.6854 21.5042 36.5026 22.3046 33.3198C23.0857 36.4442 23.8957 39.5588 24.5032 42.7222C24.5997 43.2186 26.4319 42.7709 26.3644 42.216C25.5351 37.875 24.32 33.6215 23.3268 29.3291C24.3586 25.3481 25.4579 21.3867 26.779 17.4641C26.9044 17.104 25.1011 17.3181 24.9468 17.7951Z" fill="#231F20"/>
<path d="M38.8427 18.3109C38.8909 17.3376 36.9912 17.5323 36.9141 18.4277C36.9093 18.5055 36.9093 18.5835 36.9141 18.6613C36.8686 18.7222 36.8358 18.7917 36.8176 18.8657C35.7347 23.1726 34.4377 27.4217 32.9314 31.597C32.3142 33.4755 31.8321 35.3832 31.321 37.291C31.1956 30.828 31.1956 24.3943 31.1667 17.9703C31.1667 16.9969 29.2381 17.2208 29.2381 18.1065C29.2381 26.2144 29.2381 34.3028 29.5274 42.4399C29.5024 42.5356 29.5024 42.6362 29.5274 42.7319L29.5852 43.1602C29.7009 43.9973 31.5139 43.6274 31.5139 42.8584C33.0857 38.7996 33.8957 34.4975 35.2651 30.3608C35.7665 28.8424 36.2776 27.3338 36.7694 25.8251C36.7019 31.6651 36.8273 37.5051 36.9719 43.3451C36.9719 44.3185 38.4955 44.0946 38.8138 43.4035L38.8716 43.2867C38.9247 43.2077 38.9531 43.1145 38.9531 43.0191C38.9531 42.9236 38.9247 42.8304 38.8716 42.7514C38.6305 34.517 38.457 26.4188 38.8427 18.3109Z" fill="#231F20"/>
<path d="M51.3017 17.2013C48.2651 17.4901 45.2091 17.5064 42.1696 17.25C41.6874 17.25 40.0095 18.0773 40.9835 18.126C41.9575 18.1747 43.0954 18.2331 44.1465 18.272C44.05 18.3499 43.9825 18.4375 43.9922 18.5251C44.2718 26.7108 42.97 35.3054 44.1754 43.4133C44.2333 43.8221 46.104 43.4133 46.0365 42.9071C44.8504 34.8966 46.104 26.3604 45.863 18.3109C47.5801 18.3348 49.2969 18.2471 51.0028 18.0481C51.8225 17.9703 52.6132 17.0456 51.3017 17.2013Z" fill="#231F20"/>
</g>
<defs>
<filter id="filter0_d" x="0" y="0" width="69" height="69" filterUnits="userSpaceOnUse" color-interpolation-filters="sRGB">
<feFlood flood-opacity="0" result="BackgroundImageFix"/>
<feColorMatrix in="SourceAlpha" type="matrix" values="0 0 0 0 0 0 0 0 0 0 0 0 0 0 0 0 0 0 127 0"/>
<feOffset dy="4"/>
<feGaussianBlur stdDeviation="2"/>
<feColorMatrix type="matrix" values="0 0 0 0 0 0 0 0 0 0 0 0 0 0 0 0 0 0 0.25 0"/>
<feBlend mode="normal" in2="BackgroundImageFix" result="effect1_dropShadow"/>
<feBlend mode="normal" in="SourceGraphic" in2="effect1_dropShadow" result="shape"/>
</filter>
</defs>
</svg>
